<?xml version="1.0" encoding="UTF-8" standalone="no"?>
<!-- Created with Inkscape (http://www.inkscape.org/) -->

<svg
   width="89.581688mm"
   height="114.96177mm"
   viewBox="0 0 89.581688 114.96177"
   version="1.1"
   id="svg1"
   xml:space="preserve"
   xmlns="http://www.w3.org/2000/svg"
   xmlns:svg="http://www.w3.org/2000/svg"><defs
     id="defs1" /><g
     id="layer1"
     transform="translate(-10.223347,-27.244118)"><g
       id="g11"
       transform="rotate(-15,48.067117,127.15604)"><rect
         style="fill:#a48655;fill-opacity:1;stroke:none;stroke-width:0.0549764"
         id="rect1-5-2-7"
         width="6.2372003"
         height="31.346733"
         x="61.200134"
         y="30.1625"
         ry="7.7084641"
         rx="0" /><circle
         style="fill:#106e7d;fill-opacity:1;stroke:none;stroke-width:0.264583"
         id="path4"
         cx="64.304817"
         cy="33.741436"
         r="5.4770665" /></g><g
       id="g12"
       transform="rotate(15,80.098921,-39.161567)"><rect
         style="fill:#b59664;fill-opacity:1;stroke:none;stroke-width:0.0549764"
         id="rect1-5-2"
         width="6.2372003"
         height="31.346733"
         x="85.414154"
         y="29.403444"
         ry="7.7084641"
         rx="0" /><circle
         style="fill:#106e7d;fill-opacity:1;stroke:none;stroke-width:0.264583"
         id="path4-2"
         cx="88.545303"
         cy="32.993732"
         r="5.4770665" /></g><g
       id="g14"
       transform="translate(-21.846133,-0.65212339)"><rect
         style="fill:#a48655;fill-opacity:1;stroke:none;stroke-width:0.186267"
         id="rect13"
         width="43.511875"
         height="51.581642"
         x="55.162281"
         y="83.145981"
         ry="13.617101" /><rect
         style="fill:#b59664;fill-opacity:1;stroke:none;stroke-width:0.145752"
         id="rect1"
         width="26.641792"
         height="51.581642"
         x="72.095627"
         y="83.145981"
         ry="13.320896" /><path
         style="fill:#106e7d;stroke-width:0.59025"
         d="m 65.484886,112.38321 c -1.334652,-1.61231 -2.950895,-5.33205 -2.73368,-6.29147 0.117303,-0.5181 1.46773,-0.55999 1.574201,-0.0489 1.163569,5.58615 5.452974,9.35052 10.71069,9.39969 7.465302,0.0698 12.336239,-7.48134 8.790259,-13.62702 -0.25569,-0.44313 -0.321074,-0.70226 -0.191692,-0.75989 0.107941,-0.0481 0.410992,-0.23428 0.673391,-0.41378 1.337177,-0.914715 2.804205,4.29074 2.139565,7.59174 -1.922786,9.54963 -14.44131,12.02767 -20.962711,4.14955 z m 12.702263,10.22026 c -0.145851,-0.74136 -0.160295,-0.72777 1.132058,-1.06503 8.264563,-2.1568 13.673582,-10.55917 11.909536,-18.50039 -0.149031,-0.67089 -0.251065,-1.23972 -0.226739,-1.26405 0.111807,-0.1118 1.373046,-0.46471 1.435961,-0.40179 0.138414,0.13841 0.497972,1.68834 0.63699,2.746 1.11444,8.47754 -4.637874,16.6974 -13.316179,19.02837 -1.328385,0.35656 -1.399425,0.3322 -1.571627,-0.54311 z M 62.544341,102.87025 c 0.99811,-11.26722 14.612969,-17.01691 23.924501,-10.103549 2.201541,1.63454 5.50676,5.884992 5.290064,6.802931 -0.189191,0.801438 -1.440097,0.727278 -1.82098,-0.107961 -5.471089,-11.997583 -23.837847,-9.878275 -25.642248,2.958819 -0.251361,1.78828 -0.20562,1.70997 -0.988894,1.6932 -0.813641,-0.0174 -0.863801,-0.0992 -0.762443,-1.24344 z m 7.562635,4.89087 c -4.404968,-6.85293 5.046219,-14.821265 11.965231,-10.087936 1.788925,1.223816 1.736011,1.135136 1.072986,1.79816 -0.590057,0.590056 -0.590057,0.590056 -1.2433,0.08379 -6.108206,-4.733803 -14.870618,2.407536 -9.778211,7.969226 2.531367,2.76463 7.507504,1.07444 6.268861,-2.12926 -0.512052,-1.32442 -2.087323,-1.3638 -2.208942,-0.0552 -0.06436,0.6925 -0.918877,0.39207 -1.161193,-0.40825 -0.258642,-0.8542 0.652633,-2.08696 1.686933,-2.28206 1.848359,-0.34869 3.782396,1.7577 3.49913,3.81092 -0.664682,4.81787 -7.292155,5.6712 -10.101495,1.30065 z"
         id="path5" /></g><g
       id="g13"
       transform="translate(-21.846133,-0.65212339)"><g
         id="g10"
         style="stroke:none;stroke-opacity:1"><rect
           style="fill:#a48655;fill-opacity:1;stroke:none;stroke-width:0.156674;stroke-opacity:1"
           id="rect3"
           width="50.656357"
           height="31.346733"
           x="51.267319"
           y="53.458"
           ry="7.5264268"
           rx="8.4333601" /><rect
           style="fill:#b59664;fill-opacity:1;stroke:none;stroke-width:0.120383;stroke-opacity:1"
           id="rect1-5-6"
           width="29.906693"
           height="31.346733"
           x="72.016983"
           y="53.458"
           ry="7.5264268"
           rx="8.9306183" /><rect
           style="fill:#106e7d;fill-opacity:1;stroke:none;stroke-width:0.144813;stroke-opacity:1"
           id="rect4"
           width="58.186478"
           height="23.314604"
           x="47.585926"
           y="57.474064"
           ry="5.5978932"
           rx="4.1558671" /><path
           style="fill:#17a2b8;fill-opacity:1;stroke:none;stroke-width:0.264583;stroke-opacity:1"
           id="path2"
           d="m 84.898534,50.026955 a 7.3720222,7.3720222 0 0 1 -5.933812,7.23037 7.3720222,7.3720222 0 0 1 -8.24907,-4.409219 7.3720222,7.3720222 0 0 1 2.715184,-8.950764 7.3720222,7.3720222 0 0 1 9.308483,0.916806 l -5.212807,5.212807 z"
           transform="rotate(15)" /><path
           style="fill:#17a2b8;fill-opacity:1;stroke:none;stroke-width:0.264583;stroke-opacity:1"
           id="path3"
           d="m 113.57406,42.343369 a 7.3720222,7.3720222 0 0 1 -5.93381,7.23037 7.3720222,7.3720222 0 0 1 -8.249069,-4.40922 7.3720222,7.3720222 0 0 1 2.715189,-8.950763 7.3720222,7.3720222 0 0 1 9.30848,0.916805 l -5.21281,5.212808 z"
           transform="rotate(15)" /><rect
           style="fill:#3a7ad1;fill-opacity:1;stroke:#000000;stroke-width:0.0694889;stroke-opacity:1"
           id="rect37"
           width="13.39792"
           height="23.314604"
           x="92.565132"
           y="57.474064"
           ry="5.0122166"
           rx="4.3562551" /><rect
           style="fill:#ffffff;fill-opacity:1;stroke:#000000;stroke-width:0.0694889;stroke-opacity:1"
           id="rect42"
           width="13.39792"
           height="23.314604"
           x="47.585922"
           y="57.474064"
           ry="5.0122166"
           rx="4.3562551" /><rect
           style="fill:#d73f3f;fill-opacity:1;stroke:#000000;stroke-width:0.0676304;stroke-opacity:1"
           id="rect44"
           width="12.689832"
           height="23.316462"
           x="85.754074"
           y="57.473137"
           ry="0"
           rx="0" /><rect
           style="fill:#d5ff36;fill-opacity:1;stroke:#000000;stroke-width:0.0669995;stroke-opacity:1"
           id="rect45"
           width="12.453815"
           height="23.317095"
           x="54.841766"
           y="57.47282"
           ry="0"
           rx="0" /><rect
           style="fill:#22c6cd;fill-opacity:1;stroke:#000000;stroke-width:0.0694889;stroke-opacity:1"
           id="rect43"
           width="13.39792"
           height="23.314604"
           x="61.344269"
           y="57.474064"
           ry="0"
           rx="0" /><rect
           style="fill:#bd5ec1;fill-opacity:1;stroke:#000000;stroke-width:0.0694889;stroke-opacity:1"
           id="rect46"
           width="13.39792"
           height="23.314604"
           x="78.277618"
           y="57.474064"
           ry="0"
           rx="0" /><rect
           style="fill:#52c352;fill-opacity:1;stroke:#000000;stroke-width:0.0637508;stroke-opacity:1"
           id="rect47"
           width="11.273818"
           height="23.320341"
           x="70.872993"
           y="57.471195"
           ry="0"
           rx="0" /></g></g><g
       id="g7"
       transform="translate(-21.846133,-0.65212339)"><rect
         style="fill:#3a3a3a;fill-opacity:1;stroke:none;stroke-width:0.240135"
         id="rect6"
         width="16.76708"
         height="22.737177"
         x="47.506721"
         y="120"
         ry="3.4907372" /><rect
         style="fill:#000000;fill-opacity:1;stroke:none;stroke-width:0.228229"
         id="rect7"
         width="15.14567"
         height="22.737177"
         x="49.094223"
         y="120"
         ry="3.4907372" /></g><g
       id="g7-0"
       transform="matrix(-1,0,0,1,131.85708,-0.53129013)"><rect
         style="fill:#3a3a3a;fill-opacity:1;stroke:none;stroke-width:0.240135"
         id="rect6-6"
         width="16.76708"
         height="22.737177"
         x="47.506721"
         y="120"
         ry="3.4907372" /><rect
         style="fill:#000000;fill-opacity:1;stroke:none;stroke-width:0.228229"
         id="rect7-1"
         width="15.14567"
         height="22.737177"
         x="49.094223"
         y="120"
         ry="3.4907372" /></g><g
       id="g9"
       style="fill:#b59664;fill-opacity:1"
       transform="rotate(12.46244,69.74988,-9.2691228)"><path
         style="fill:#b59664;fill-opacity:1;stroke:none;stroke-width:0.215554"
         id="path2-8-8"
         d="m 164.8648,-55.869186 a 6.0059257,6.0059257 0 0 1 -4.83423,5.890523 6.0059257,6.0059257 0 0 1 -6.72045,-3.592155 6.0059257,6.0059257 0 0 1 2.21204,-7.292113 6.0059257,6.0059257 0 0 1 7.58354,0.746914 l -4.24683,4.246831 z"
         transform="matrix(0.9123665,0.40937437,0.40937437,-0.9123665,0,0)" /><ellipse
         style="fill:#b59664;fill-opacity:1;stroke:none;stroke-width:0.192604"
         id="path6-8-6"
         cx="-147.75279"
         cy="3.7687418"
         rx="18.997293"
         ry="3.5761082"
         transform="matrix(-0.70918798,-0.70501944,0.70561407,-0.70859634,0,0)" /></g><g
       id="g15"
       style="fill:#a48655;fill-opacity:1"
       transform="matrix(-0.97790091,0.20906891,0.20906891,0.97790091,111.34459,-14.767637)"><path
         style="fill:#a48655;fill-opacity:1;stroke:none;stroke-width:0.215554"
         id="path14"
         d="m 164.8648,-55.869186 a 6.0059257,6.0059257 0 0 1 -4.83423,5.890523 6.0059257,6.0059257 0 0 1 -6.72045,-3.592155 6.0059257,6.0059257 0 0 1 2.21204,-7.292113 6.0059257,6.0059257 0 0 1 7.58354,0.746914 l -4.24683,4.246831 z"
         transform="matrix(0.9123665,0.40937437,0.40937437,-0.9123665,0,0)" /><ellipse
         style="fill:#a48655;fill-opacity:1;stroke:none;stroke-width:0.192604"
         id="ellipse14"
         cx="-147.75279"
         cy="3.7687418"
         rx="18.997293"
         ry="3.5761082"
         transform="matrix(-0.70918798,-0.70501944,0.70561407,-0.70859634,0,0)" /></g></g></svg>
